<svg xmlns="http://www.w3.org/2000/svg" width="73" height="20" fill="none"><path stroke="#F4C550" stroke-linecap="round" stroke-linejoin="round" stroke-width="2" d="M12.5 2.5h1c1.4 0 2.1 0 2.635.272a2.5 2.5 0 0 1 1.092 1.093C17.5 4.4 17.5 5.1 17.5 6.5v7c0 1.4 0 2.1-.273 2.635a2.5 2.5 0 0 1-1.092 1.092c-.535.273-1.235.273-2.635.273h-1M8.333 5.833 12.5 10m0 0-4.167 4.167M12.5 10h-10"/><path fill="#121417" d="M36.328 13.172V15h-5.726v-1.828h5.726ZM31.36 3.625V15h-2.343V3.625h2.343Zm5.813 7.234v-.164c0-.62.088-1.19.266-1.71a3.96 3.96 0 0 1 .773-1.368 3.466 3.466 0 0 1 1.25-.898c.495-.219 1.062-.328 1.703-.328.64 0 1.211.109 1.711.328.5.213.92.513 1.258.898.344.386.604.841.781 1.367.177.521.266 1.091.266 1.711v.164c0 .615-.089 1.185-.266 1.711-.177.521-.437.977-.781 1.367a3.465 3.465 0 0 1-1.25.899c-.495.213-1.063.32-1.703.32-.64 0-1.211-.107-1.711-.32a3.541 3.541 0 0 1-1.258-.899 4.057 4.057 0 0 1-.773-1.367 5.33 5.33 0 0 1-.266-1.71Zm2.25-.164v.164c0 .354.031.685.094.993.062.307.161.578.297.812.14.23.322.409.546.54.224.13.498.194.82.194.313 0 .581-.065.805-.195.224-.13.404-.31.54-.539a2.68 2.68 0 0 0 .296-.812c.068-.308.102-.639.102-.993v-.164c0-.343-.034-.666-.102-.968a2.558 2.558 0 0 0-.304-.813 1.513 1.513 0 0 0-.54-.562 1.542 1.542 0 0 0-.812-.204c-.318 0-.589.068-.812.204a1.598 1.598 0 0 0-.54.562 2.682 2.682 0 0 0-.296.813 4.777 4.777 0 0 0-.094.968Zm12.492-4.148h2.04v8.172c0 .77-.173 1.424-.517 1.96-.338.542-.812.951-1.421 1.227-.61.282-1.318.422-2.125.422a4.89 4.89 0 0 1-1.125-.14 4.5 4.5 0 0 1-1.125-.438 2.973 2.973 0 0 1-.891-.75l.992-1.328c.26.302.563.536.906.703.344.172.724.258 1.141.258.406 0 .75-.076 1.031-.227a1.5 1.5 0 0 0 .649-.648c.15-.281.226-.623.226-1.024V8.5l.22-1.953Zm-5.687 4.328v-.164c0-.646.078-1.232.234-1.758.161-.531.388-.987.68-1.367a3.09 3.09 0 0 1 1.078-.883 3.185 3.185 0 0 1 1.43-.312c.562 0 1.033.104 1.413.312.38.208.693.505.938.89.245.381.435.831.57 1.352.14.516.25 1.081.328 1.696V11a10.011 10.011 0 0 1-.351 1.64 5.044 5.044 0 0 1-.617 1.329 2.73 2.73 0 0 1-.953.875c-.375.208-.823.312-1.344.312-.521 0-.992-.107-1.414-.32a3.158 3.158 0 0 1-1.07-.899 4.283 4.283 0 0 1-.688-1.359 5.906 5.906 0 0 1-.234-1.703Zm2.25-.164v.164c0 .349.033.675.101.977a2.7 2.7 0 0 0 .313.804c.145.23.325.41.539.54.218.124.476.187.773.187.412 0 .747-.086 1.008-.258.26-.177.456-.42.586-.727.13-.307.206-.661.226-1.062v-1.024a3.452 3.452 0 0 0-.132-.882 2.117 2.117 0 0 0-.328-.68 1.417 1.417 0 0 0-.547-.438 1.875 1.875 0 0 0-.797-.156 1.44 1.44 0 0 0-.774.203c-.213.13-.393.31-.539.54-.14.229-.247.5-.32.812-.073.307-.11.64-.11 1Zm13.586-4.164V15h-2.258V6.547h2.258Zm-2.399-2.203c0-.328.115-.6.344-.813.229-.213.536-.32.922-.32.38 0 .685.107.914.32.234.214.351.485.351.813 0 .328-.117.599-.351.812-.23.214-.534.32-.914.32-.386 0-.693-.106-.922-.32a1.062 1.062 0 0 1-.344-.812Zm6.461 4.008V15h-2.25V6.547h2.11l.14 1.805Zm-.328 2.125h-.61c0-.625.081-1.188.243-1.688.161-.505.388-.935.68-1.289a2.92 2.92 0 0 1 1.038-.82c.407-.193.86-.29 1.36-.29.396 0 .758.058 1.086.173.328.114.61.296.844.546.24.25.421.581.546.993.13.411.196.914.196 1.507V15h-2.266V9.602c0-.375-.052-.667-.156-.875a.878.878 0 0 0-.461-.438 1.797 1.797 0 0 0-.734-.133c-.303 0-.566.06-.79.18-.218.12-.4.286-.546.5a2.36 2.36 0 0 0-.32.734c-.074.282-.11.584-.11.907Z"/></svg>