<svg xmlns="http://www.w3.org/2000/svg" width="133" height="28" fill="none"><g clip-path="url(#a)"><path fill="#FFDA44" d="M14 28c7.732 0 14-6.268 14-14S21.732 0 14 0 0 6.268 0 14s6.268 14 14 14Z"/><path fill="#338AF3" d="M0 14C0 6.268 6.268 0 14 0s14 6.268 14 14"/></g><path fill="#121417" d="M46.352 19.057V21h-7.14v-1.943h7.14ZM39.897 6.78V21h-2.452V6.781h2.452ZM52.27 21.195c-.781 0-1.488-.127-2.12-.38a4.68 4.68 0 0 1-1.6-1.085 4.805 4.805 0 0 1-1.007-1.63 5.71 5.71 0 0 1-.351-2.022v-.39c0-.827.12-1.576.361-2.247.241-.67.576-1.243 1.006-1.718.43-.482.938-.85 1.523-1.104a4.738 4.738 0 0 1 1.905-.38c.755 0 1.416.126 1.982.38a3.726 3.726 0 0 1 1.406 1.074c.378.456.658 1 .84 1.631.189.632.283 1.328.283 2.09v1.006h-8.164v-1.69h5.84v-.185a3.303 3.303 0 0 0-.254-1.191c-.15-.372-.38-.671-.693-.899-.313-.228-.73-.342-1.25-.342-.39 0-.739.085-1.045.254-.3.163-.55.4-.752.713-.202.313-.358.69-.469 1.133a6.37 6.37 0 0 0-.156 1.475v.39c0 .462.062.892.186 1.29.13.39.319.732.566 1.025.247.293.547.524.898.693.352.163.752.244 1.202.244.566 0 1.07-.114 1.513-.342a3.47 3.47 0 0 0 1.153-.966l1.24 1.2a4.837 4.837 0 0 1-.889.958c-.364.3-.81.543-1.338.732-.52.189-1.126.283-1.816.283Zm11.621-2.314v-5.04c0-.377-.068-.702-.205-.976a1.435 1.435 0 0 0-.625-.635c-.273-.15-.618-.224-1.035-.224-.384 0-.716.065-.996.195a1.61 1.61 0 0 0-.654.527 1.272 1.272 0 0 0-.235.752h-2.343c0-.416.1-.82.302-1.21.202-.391.495-.74.88-1.045a4.387 4.387 0 0 1 1.376-.723 5.727 5.727 0 0 1 1.797-.264c.794 0 1.498.134 2.11.4.618.268 1.103.671 1.455 1.212.358.534.537 1.204.537 2.011v4.698c0 .481.032.914.097 1.298a4.2 4.2 0 0 0 .303.987V21h-2.412a4.168 4.168 0 0 1-.264-.967 7.893 7.893 0 0 1-.088-1.152Zm.342-4.307.02 1.455h-1.69c-.436 0-.82.043-1.152.127a2.368 2.368 0 0 0-.83.352 1.527 1.527 0 0 0-.498.566c-.11.222-.166.472-.166.752s.065.537.195.772c.13.228.32.407.566.537.254.13.56.195.919.195.481 0 .901-.098 1.26-.293a2.59 2.59 0 0 0 .859-.732c.208-.293.319-.57.332-.83l.761 1.044a3.573 3.573 0 0 1-.4.86 4.161 4.161 0 0 1-.742.879c-.3.273-.661.498-1.084.674-.417.175-.899.263-1.445.263-.69 0-1.306-.136-1.846-.41a3.282 3.282 0 0 1-1.27-1.123 2.912 2.912 0 0 1-.459-1.611c0-.56.104-1.055.313-1.485.215-.436.527-.8.937-1.093.417-.293.925-.515 1.524-.664.599-.157 1.282-.235 2.05-.235h1.846Zm6.446-2.129V21h-2.354V10.434h2.246l.108 2.011Zm3.232-2.08-.02 2.188a4.635 4.635 0 0 0-.468-.059 6.128 6.128 0 0 0-.488-.02c-.404 0-.759.06-1.065.176-.306.111-.563.274-.771.489a2.149 2.149 0 0 0-.469.761c-.11.3-.176.635-.195 1.006l-.537.04c0-.665.065-1.28.195-1.846.13-.567.325-1.065.586-1.495.267-.43.599-.764.996-1.005.404-.241.87-.362 1.397-.362.143 0 .296.013.459.04.169.025.296.055.38.087Zm3.409 2.325V21h-2.354V10.434h2.217l.137 2.256Zm-.42 2.636-.762-.01c.007-.748.111-1.435.313-2.06a5.076 5.076 0 0 1 .86-1.611c.37-.45.813-.795 1.327-1.036a3.913 3.913 0 0 1 1.719-.37c.508 0 .967.07 1.377.214.417.137.772.362 1.064.674.3.313.528.72.684 1.22.156.495.234 1.104.234 1.827V21h-2.363v-6.836c0-.508-.075-.908-.224-1.201a1.256 1.256 0 0 0-.635-.635c-.274-.13-.615-.195-1.026-.195-.403 0-.765.084-1.084.254-.319.169-.589.4-.81.693a3.36 3.36 0 0 0-.498 1.016 4.195 4.195 0 0 0-.176 1.23Zm17.96 3.73V21h-7.14v-1.943h7.14ZM88.403 6.782V21h-2.45V6.781h2.45Zm10.235 3.653V21h-2.363V10.434h2.363ZM96.12 7.66c0-.358.118-.654.352-.889.241-.24.573-.36.996-.36.417 0 .746.12.987.36.24.235.36.531.36.89 0 .35-.12.644-.36.878-.241.234-.57.352-.987.352-.423 0-.755-.118-.996-.352a1.192 1.192 0 0 1-.352-.879Zm7.032 5.03V21h-2.353V10.434h2.216l.137 2.256Zm-.42 2.636-.761-.01a6.85 6.85 0 0 1 .312-2.06 5.08 5.08 0 0 1 .859-1.611c.372-.45.814-.795 1.329-1.036a3.91 3.91 0 0 1 1.718-.37c.508 0 .967.07 1.377.214.417.137.772.362 1.065.674.299.313.527.72.683 1.22.157.495.235 1.104.235 1.827V21h-2.364v-6.836c0-.508-.074-.908-.224-1.201a1.256 1.256 0 0 0-.635-.635c-.273-.13-.615-.195-1.025-.195-.404 0-.765.084-1.084.254-.319.169-.59.4-.811.693a3.35 3.35 0 0 0-.498 1.016 4.202 4.202 0 0 0-.176 1.23Zm15.587-4.892h2.138v10.273c0 .95-.202 1.758-.605 2.422a3.893 3.893 0 0 1-1.69 1.514c-.722.351-1.559.527-2.509.527-.404 0-.853-.059-1.348-.176a5.519 5.519 0 0 1-1.426-.566 3.53 3.53 0 0 1-1.142-1.006l1.103-1.387c.378.45.794.778 1.25.986.456.209.934.313 1.436.313.54 0 .999-.1 1.377-.303.384-.195.68-.485.888-.869.209-.384.313-.853.313-1.406v-7.93l.215-2.392Zm-7.178 5.4v-.205c0-.8.098-1.53.293-2.188.195-.664.475-1.233.84-1.709.364-.481.807-.85 1.328-1.103.521-.26 1.11-.39 1.767-.39.684 0 1.267.123 1.748.37.489.248.896.603 1.221 1.065.326.456.58 1.002.762 1.64.189.632.329 1.335.42 2.11v.654a10.58 10.58 0 0 1-.43 2.07 5.717 5.717 0 0 1-.801 1.622 3.418 3.418 0 0 1-1.23 1.054c-.482.248-1.052.371-1.709.371a3.776 3.776 0 0 1-1.748-.4 3.97 3.97 0 0 1-1.328-1.123 5.305 5.305 0 0 1-.84-1.7 7.493 7.493 0 0 1-.293-2.138Zm2.353-.205v.205c0 .482.046.931.137 1.348.098.416.244.784.44 1.103.201.313.455.56.761.742.313.176.681.264 1.104.264.553 0 1.006-.117 1.357-.352a2.28 2.28 0 0 0 .821-.947 4.8 4.8 0 0 0 .41-1.348v-1.767a4.344 4.344 0 0 0-.244-1.074 2.889 2.889 0 0 0-.479-.87 2 2 0 0 0-.762-.585c-.306-.144-.667-.215-1.084-.215-.423 0-.791.091-1.103.273a2.24 2.24 0 0 0-.772.752c-.195.32-.341.69-.439 1.114a6.005 6.005 0 0 0-.147 1.357Zm8.555.205v-.225c0-.761.111-1.468.332-2.119a5.043 5.043 0 0 1 .958-1.709 4.32 4.32 0 0 1 1.542-1.133c.612-.273 1.303-.41 2.071-.41.775 0 1.465.137 2.07.41a4.3 4.3 0 0 1 1.553 1.133c.423.482.745 1.052.967 1.71.221.65.332 1.357.332 2.118v.225c0 .762-.111 1.468-.332 2.12a5.085 5.085 0 0 1-.967 1.708c-.423.482-.938.86-1.543 1.133-.606.267-1.292.4-2.061.4-.774 0-1.468-.133-2.08-.4a4.481 4.481 0 0 1-1.543-1.133 5.085 5.085 0 0 1-.967-1.709 6.553 6.553 0 0 1-.332-2.119Zm2.354-.225v.225c0 .475.049.925.146 1.348.098.423.251.794.459 1.113.209.319.476.57.801.752.326.182.713.273 1.162.273.437 0 .814-.09 1.133-.273.326-.182.593-.433.801-.752a3.44 3.44 0 0 0 .459-1.113 5.63 5.63 0 0 0 .156-1.348v-.225c0-.468-.052-.911-.156-1.328a3.416 3.416 0 0 0-.469-1.123 2.235 2.235 0 0 0-.801-.761c-.319-.19-.7-.284-1.142-.284-.443 0-.827.095-1.153.284a2.273 2.273 0 0 0-.791.761c-.208.326-.361.7-.459 1.123-.097.417-.146.86-.146 1.328Z"/><defs><clipPath id="a"><path fill="#fff" d="M0 0h28v28H0z"/></clipPath></defs></svg>