<svg aria-hidden="true" style="position: absolute; width: 0; height: 0; overflow: hidden;" version="1.1" xmlns="http://www.w3.org/2000/svg" xmlns:xlink="http://www.w3.org/1999/xlink">
<defs>
<symbol id="login" viewBox="0 0 117 32">
<path fill="none" stroke="#f4c550" style="stroke: var(--color1, #f4c550)" stroke-linejoin="round" stroke-linecap="round" stroke-miterlimit="4" stroke-width="3.2" d="M20 4h1.6c2.24 0 3.36 0 4.216 0.435 0.756 0.391 1.357 0.992 1.737 1.726l0.011 0.022c0.437 0.856 0.437 1.976 0.437 4.216v11.2c0 2.24 0 3.36-0.437 4.216-0.391 0.756-0.992 1.356-1.725 1.737l-0.022 0.011c-0.856 0.437-1.976 0.437-4.216 0.437h-1.6M13.333 9.333l6.667 6.667M20 16l-6.667 6.667M20 16h-16"></path>
<path d="M58.125 21.075v2.925h-9.162v-2.925h9.162zM50.176 5.8v18.2h-3.749v-18.2h3.749zM59.477 17.374v-0.262c0-0.992 0.141-1.904 0.426-2.736 0.28-0.845 0.702-1.574 1.243-2.196l-0.007 0.008c0.542-0.611 1.21-1.098 1.964-1.423l0.036-0.014c0.792-0.35 1.699-0.525 2.725-0.525 1.024 0 1.938 0.174 2.738 0.525 0.8 0.341 1.472 0.821 2.013 1.437 0.55 0.618 0.966 1.346 1.25 2.187 0.283 0.834 0.426 1.746 0.426 2.738v0.262c0 0.984-0.142 1.896-0.426 2.738-0.283 0.834-0.699 1.563-1.25 2.187-0.542 0.612-1.21 1.1-1.964 1.425l-0.036 0.014c-0.792 0.341-1.701 0.512-2.725 0.512s-1.938-0.171-2.738-0.512c-0.794-0.341-1.465-0.828-2.008-1.433l-0.005-0.005c-0.531-0.616-0.953-1.344-1.223-2.141l-0.013-0.046c-0.27-0.795-0.426-1.71-0.426-2.661 0-0.026 0-0.052 0-0.079l-0 0.004zM63.077 17.112v0.262c0 0.566 0.050 1.096 0.15 1.589 0.099 0.491 0.258 0.925 0.475 1.299 0.224 0.368 0.515 0.654 0.874 0.864 0.358 0.208 0.797 0.31 1.312 0.31 0.501 0 0.93-0.104 1.288-0.312s0.646-0.496 0.864-0.862c0.215-0.375 0.379-0.81 0.469-1.272l0.004-0.027c0.109-0.493 0.163-1.022 0.163-1.589v-0.262c0-0.549-0.054-1.066-0.163-1.549-0.095-0.49-0.264-0.926-0.497-1.32l0.010 0.019c-0.209-0.373-0.501-0.677-0.853-0.893l-0.011-0.006c-0.353-0.206-0.776-0.327-1.228-0.327-0.025 0-0.050 0-0.075 0.001l0.004-0c-0.509 0-0.942 0.109-1.299 0.326-0.359 0.227-0.65 0.53-0.857 0.887l-0.007 0.012c-0.215 0.375-0.379 0.811-0.469 1.274l-0.004 0.027c-0.096 0.454-0.151 0.975-0.151 1.509 0 0.014 0 0.028 0 0.042v-0.002zM83.064 10.475h3.264v13.075c0 1.232-0.277 2.278-0.827 3.136-0.541 0.867-1.299 1.522-2.274 1.963-0.976 0.451-2.109 0.675-3.4 0.675-0.641-0.005-1.261-0.086-1.854-0.235l0.054 0.012c-0.682-0.167-1.282-0.408-1.836-0.719l0.036 0.019c-0.562-0.313-1.035-0.714-1.418-1.191l-0.007-0.009 1.587-2.125c0.416 0.483 0.901 0.858 1.45 1.125 0.55 0.275 1.158 0.413 1.826 0.413 0.65 0 1.2-0.122 1.65-0.363 0.448-0.233 0.805-0.589 1.032-1.024l0.006-0.013c0.24-0.45 0.362-0.997 0.362-1.638v-9.974l0.352-3.125zM73.965 17.4v-0.262c0-1.034 0.125-1.971 0.374-2.813 0.258-0.85 0.621-1.579 1.088-2.187 0.459-0.591 1.035-1.067 1.696-1.4l0.028-0.013c0.644-0.315 1.401-0.5 2.201-0.5 0.031 0 0.061 0 0.091 0.001l-0.005-0c0.899 0 1.653 0.166 2.261 0.499s1.109 0.808 1.501 1.424c0.392 0.61 0.696 1.33 0.912 2.163 0.224 0.826 0.4 1.73 0.525 2.714v0.574c-0.129 0.993-0.325 1.881-0.592 2.737l0.030-0.113c-0.244 0.809-0.58 1.515-1.006 2.156l0.019-0.030c-0.392 0.582-0.904 1.054-1.503 1.389l-0.022 0.011c-0.6 0.333-1.317 0.499-2.15 0.499s-1.587-0.171-2.262-0.512c-0.684-0.357-1.256-0.842-1.703-1.426l-0.009-0.012c-0.472-0.619-0.849-1.343-1.088-2.126l-0.013-0.049c-0.238-0.789-0.375-1.696-0.375-2.635 0-0.032 0-0.063 0-0.095l-0 0.005zM77.565 17.138v0.262c0 0.558 0.053 1.080 0.162 1.563 0.106 0.486 0.279 0.916 0.512 1.306l-0.011-0.020c0.232 0.368 0.52 0.656 0.862 0.864 0.349 0.198 0.762 0.299 1.237 0.299 0.659 0 1.195-0.138 1.613-0.413 0.416-0.283 0.73-0.672 0.938-1.163s0.33-1.058 0.362-1.699v-1.638c-0.010-0.506-0.086-0.991-0.221-1.45l0.010 0.039c-0.117-0.415-0.297-0.778-0.531-1.097l0.007 0.009c-0.228-0.3-0.522-0.538-0.861-0.695l-0.014-0.006c-0.353-0.158-0.766-0.251-1.2-0.251-0.026 0-0.053 0-0.079 0.001l0.004-0c-0.017-0-0.037-0.001-0.058-0.001-0.436 0-0.843 0.121-1.191 0.331l0.010-0.006c-0.341 0.208-0.629 0.496-0.862 0.864-0.224 0.366-0.395 0.8-0.512 1.299-0.117 0.491-0.176 1.024-0.176 1.6zM99.302 10.475v13.525h-3.613v-13.525h3.613zM95.464 6.95c0-0.525 0.184-0.96 0.55-1.301s0.858-0.512 1.475-0.512c0.608 0 1.096 0.171 1.462 0.512 0.374 0.342 0.562 0.776 0.562 1.301s-0.187 0.958-0.562 1.299c-0.368 0.342-0.854 0.512-1.462 0.512-0.618 0-1.109-0.17-1.475-0.512-0.339-0.312-0.551-0.757-0.551-1.253 0-0.016 0-0.033 0.001-0.049l-0 0.002zM105.802 13.363v10.637h-3.6v-13.525h3.376l0.224 2.888zM105.277 16.763h-0.976c0-1 0.13-1.901 0.389-2.701 0.258-0.808 0.621-1.496 1.088-2.062 0.443-0.552 0.998-0.995 1.633-1.3l0.028-0.012c0.651-0.309 1.376-0.464 2.176-0.464 0.634 0 1.213 0.093 1.738 0.277 0.525 0.182 0.976 0.474 1.35 0.874 0.384 0.4 0.674 0.93 0.874 1.589 0.208 0.658 0.314 1.462 0.314 2.411v8.626h-3.626v-8.637c0-0.6-0.083-1.067-0.25-1.4-0.152-0.318-0.411-0.564-0.728-0.697l-0.009-0.003c-0.322-0.135-0.696-0.214-1.089-0.214-0.030 0-0.060 0-0.090 0.001l0.004-0c-0.485 0-0.906 0.096-1.264 0.288-0.349 0.192-0.64 0.458-0.874 0.8-0.224 0.337-0.401 0.729-0.506 1.148l-0.006 0.026c-0.118 0.451-0.176 0.934-0.176 1.451z"></path>
</symbol>
<symbol id="logo" viewBox="0 0 152 32">
<path fill="#ffda44" style="fill: var(--color2, #ffda44)" d="M16 32c8.837 0 16-7.163 16-16s-7.163-16-16-16-16 7.163-16 16 7.163 16 16 16z"></path>
<path fill="#338af3" style="fill: var(--color3, #338af3)" d="M0 16c0-8.837 7.163-16 16-16s16 7.163 16 16z"></path>
<path fill="#121417" style="fill: var(--color4, #121417)" d="M52.974 21.779v2.221h-8.16v-2.221h8.16zM45.597 7.749v16.251h-2.802v-16.25h2.802zM59.737 24.223c-0.893 0-1.701-0.145-2.423-0.434-0.715-0.297-1.324-0.716-1.827-1.238l-0.002-0.002c-0.49-0.52-0.88-1.14-1.138-1.825l-0.013-0.038c-0.254-0.67-0.401-1.444-0.401-2.253 0-0.020 0-0.040 0-0.061l-0 0.003v-0.446c0-0.945 0.137-1.801 0.413-2.568 0.275-0.766 0.658-1.421 1.15-1.963 0.491-0.551 1.072-0.971 1.741-1.262 0.627-0.275 1.357-0.435 2.125-0.435 0.018 0 0.036 0 0.055 0l-0.003-0c0.863 0 1.618 0.144 2.265 0.434 0.643 0.286 1.181 0.702 1.601 1.22l0.006 0.008c0.432 0.521 0.752 1.143 0.96 1.864 0.216 0.722 0.323 1.518 0.323 2.389v1.15h-9.33v-1.931h6.674v-0.211c-0.013-0.494-0.118-0.96-0.3-1.386l0.009 0.025c-0.171-0.425-0.434-0.767-0.792-1.027s-0.834-0.391-1.429-0.391c-0.446 0-0.845 0.097-1.194 0.29-0.343 0.186-0.629 0.457-0.859 0.815s-0.409 0.789-0.536 1.295c-0.114 0.482-0.179 1.035-0.179 1.603 0 0.029 0 0.058 0.001 0.087l-0-0.004v0.446c0 0.528 0.071 1.019 0.213 1.474 0.149 0.446 0.365 0.837 0.647 1.171s0.625 0.599 1.026 0.792c0.402 0.186 0.859 0.279 1.374 0.279 0.647 0 1.223-0.13 1.729-0.391 0.525-0.276 0.965-0.648 1.311-1.095l0.007-0.009 1.417 1.371c-0.295 0.416-0.63 0.776-1.007 1.087l-0.009 0.008c-0.416 0.343-0.926 0.621-1.529 0.837-0.594 0.216-1.287 0.323-2.075 0.323zM73.018 21.578v-5.76c0-0.431-0.078-0.802-0.234-1.115-0.158-0.313-0.404-0.563-0.705-0.721l-0.009-0.004c-0.312-0.171-0.706-0.256-1.183-0.256-0.439 0-0.818 0.074-1.138 0.223-0.304 0.136-0.556 0.341-0.744 0.597l-0.004 0.005c-0.168 0.234-0.269 0.526-0.269 0.842 0 0.006 0 0.012 0 0.018v-0.001h-2.678c0-0.475 0.114-0.937 0.345-1.383 0.231-0.447 0.566-0.846 1.006-1.194 0.448-0.351 0.97-0.633 1.537-0.816l0.035-0.010c0.588-0.192 1.264-0.302 1.966-0.302 0.031 0 0.061 0 0.092 0.001l-0.005-0c0.907 0 1.712 0.153 2.411 0.457 0.706 0.306 1.261 0.767 1.663 1.385 0.409 0.61 0.614 1.376 0.614 2.298v5.369c0 0.55 0.037 1.045 0.111 1.483 0.076 0.425 0.196 0.803 0.359 1.158l-0.012-0.030v0.178h-2.757c-0.134-0.319-0.24-0.691-0.298-1.079l-0.003-0.026c-0.063-0.395-0.099-0.851-0.101-1.315v-0.001zM73.409 16.656l0.023 1.663h-1.931c-0.498 0-0.937 0.049-1.317 0.145-0.36 0.078-0.678 0.218-0.958 0.408l0.009-0.006c-0.24 0.166-0.433 0.383-0.565 0.637l-0.005 0.010c-0.126 0.254-0.19 0.539-0.19 0.859s0.074 0.614 0.223 0.882c0.149 0.261 0.366 0.465 0.647 0.614 0.29 0.149 0.64 0.223 1.050 0.223 0.55 0 1.030-0.112 1.44-0.335 0.392-0.21 0.72-0.491 0.976-0.829l0.005-0.007c0.238-0.335 0.365-0.651 0.379-0.949l0.87 1.193c-0.118 0.375-0.274 0.7-0.467 0.999l0.010-0.016c-0.244 0.383-0.524 0.713-0.844 1.001l-0.004 0.004c-0.343 0.312-0.755 0.569-1.239 0.77-0.477 0.2-1.027 0.301-1.651 0.301-0.789 0-1.493-0.155-2.11-0.469-0.596-0.302-1.086-0.738-1.443-1.27l-0.009-0.014c-0.329-0.507-0.525-1.128-0.525-1.794 0-0.017 0-0.033 0-0.050l-0 0.003c0-0.64 0.119-1.206 0.358-1.697 0.246-0.498 0.602-0.914 1.071-1.249 0.477-0.335 1.057-0.589 1.742-0.759 0.685-0.179 1.465-0.269 2.343-0.269h2.11zM80.776 14.223v9.777h-2.69v-12.075h2.567l0.123 2.298zM84.47 11.846l-0.023 2.501c-0.148-0.028-0.331-0.052-0.517-0.066l-0.018-0.001c-0.167-0.014-0.361-0.023-0.557-0.023h-0c-0.462 0-0.867 0.069-1.217 0.201-0.35 0.127-0.643 0.313-0.881 0.559-0.231 0.242-0.413 0.531-0.531 0.853l-0.005 0.017c-0.126 0.343-0.201 0.726-0.223 1.15l-0.614 0.046c0-0.76 0.074-1.463 0.223-2.11 0.149-0.648 0.371-1.217 0.67-1.709 0.305-0.491 0.685-0.873 1.138-1.149 0.462-0.275 0.994-0.414 1.597-0.414 0.163 0 0.338 0.015 0.525 0.046 0.193 0.029 0.338 0.063 0.434 0.099zM88.366 14.503v9.497h-2.69v-12.075h2.534l0.157 2.578zM87.886 17.515l-0.871-0.011c0.008-0.855 0.127-1.64 0.358-2.354 0.23-0.706 0.564-1.318 0.992-1.853l-0.009 0.012c0.423-0.514 0.929-0.909 1.517-1.184 0.556-0.267 1.21-0.423 1.899-0.423 0.023 0 0.046 0 0.069 0.001l-0.003-0c0.581 0 1.105 0.080 1.574 0.245 0.477 0.157 0.882 0.414 1.216 0.77 0.343 0.358 0.603 0.823 0.782 1.394 0.178 0.566 0.267 1.262 0.267 2.088v7.801h-2.701v-7.813c0-0.581-0.086-1.038-0.256-1.373-0.147-0.324-0.401-0.579-0.717-0.722l-0.009-0.004c-0.313-0.149-0.703-0.223-1.173-0.223-0.461 0-0.874 0.096-1.239 0.29-0.365 0.193-0.673 0.457-0.926 0.792-0.242 0.332-0.436 0.718-0.562 1.134l-0.007 0.027c-0.128 0.411-0.201 0.884-0.201 1.374 0 0.011 0 0.022 0 0.033v-0.002zM108.411 21.778v2.222h-8.16v-2.221h8.16zM101.032 7.751v16.249h-2.8v-16.25h2.8zM112.729 11.926v12.074h-2.701v-12.075h2.701zM109.851 8.754c0-0.409 0.135-0.747 0.402-1.016 0.275-0.274 0.655-0.411 1.138-0.411 0.477 0 0.853 0.137 1.128 0.411 0.274 0.269 0.411 0.607 0.411 1.017 0 0.4-0.137 0.736-0.411 1.003-0.275 0.267-0.651 0.402-1.128 0.402-0.483 0-0.863-0.135-1.138-0.402-0.249-0.247-0.403-0.589-0.403-0.967 0-0.013 0-0.026 0.001-0.039l-0 0.002zM117.888 14.503v9.497h-2.689v-12.075h2.533l0.157 2.578zM117.408 17.515l-0.87-0.011c0-0.005-0-0.012-0-0.018 0-0.834 0.13-1.637 0.372-2.391l-0.015 0.055c0.229-0.706 0.564-1.318 0.991-1.853l-0.009 0.012c0.425-0.514 0.93-0.909 1.519-1.184 0.556-0.267 1.209-0.423 1.898-0.423 0.023 0 0.046 0 0.068 0.001l-0.003-0c0.581 0 1.105 0.080 1.574 0.245 0.477 0.157 0.882 0.414 1.217 0.77 0.342 0.358 0.602 0.823 0.781 1.394 0.179 0.566 0.269 1.262 0.269 2.088v7.801h-2.702v-7.813c0-0.581-0.085-1.038-0.256-1.373-0.147-0.324-0.401-0.579-0.717-0.722l-0.009-0.004c-0.312-0.149-0.703-0.223-1.171-0.223-0.462 0-0.874 0.096-1.239 0.29-0.365 0.193-0.674 0.457-0.927 0.792-0.242 0.332-0.437 0.718-0.562 1.134l-0.007 0.027c-0.128 0.412-0.201 0.885-0.201 1.376 0 0.011 0 0.021 0 0.032v-0.002zM135.222 11.925h2.443v11.741c0 1.086-0.231 2.009-0.691 2.768-0.462 0.754-1.12 1.348-1.904 1.719l-0.027 0.012c-0.825 0.401-1.782 0.602-2.867 0.602-0.462 0-0.975-0.067-1.541-0.201-0.618-0.153-1.16-0.375-1.66-0.663l0.030 0.016c-0.522-0.292-0.958-0.678-1.297-1.139l-0.008-0.011 1.261-1.585c0.432 0.514 0.907 0.889 1.429 1.127 0.521 0.239 1.067 0.358 1.641 0.358 0.617 0 1.142-0.114 1.574-0.346 0.439-0.223 0.777-0.554 1.015-0.993 0.239-0.439 0.358-0.975 0.358-1.607v-9.063l0.246-2.734zM127.018 18.096v-0.234c0-0.914 0.112-1.749 0.335-2.501 0.223-0.759 0.543-1.409 0.96-1.953 0.416-0.55 0.922-0.971 1.518-1.261 0.595-0.297 1.269-0.446 2.019-0.446 0.782 0 1.448 0.141 1.998 0.423 0.559 0.283 1.024 0.689 1.395 1.217 0.373 0.521 0.663 1.145 0.871 1.874 0.216 0.722 0.376 1.526 0.48 2.411v0.747c-0.094 0.881-0.267 1.683-0.515 2.451l0.024-0.086c-0.222 0.707-0.534 1.322-0.929 1.873l0.013-0.020c-0.366 0.506-0.838 0.912-1.384 1.194l-0.022 0.010c-0.551 0.283-1.202 0.424-1.953 0.424-0.019 0-0.041 0-0.064 0-0.705 0-1.371-0.169-1.958-0.469l0.024 0.011c-0.606-0.321-1.113-0.752-1.51-1.272l-0.008-0.011c-0.415-0.554-0.743-1.201-0.949-1.9l-0.011-0.043c-0.213-0.711-0.335-1.527-0.335-2.372 0-0.025 0-0.050 0-0.075l-0 0.004zM129.707 17.862v0.234c0 0.551 0.053 1.064 0.157 1.541 0.112 0.475 0.279 0.896 0.503 1.261 0.23 0.358 0.52 0.64 0.87 0.848 0.358 0.201 0.778 0.302 1.262 0.302 0.632 0 1.15-0.134 1.551-0.402 0.406-0.268 0.726-0.634 0.932-1.067l0.007-0.016c0.217-0.447 0.381-0.965 0.465-1.51l0.004-0.031v-2.019c-0.045-0.453-0.143-0.869-0.29-1.262l0.011 0.034c-0.133-0.381-0.319-0.711-0.552-1.001l0.005 0.006c-0.23-0.286-0.522-0.514-0.856-0.663l-0.015-0.006c-0.35-0.165-0.762-0.246-1.239-0.246-0.483 0-0.904 0.104-1.261 0.312-0.363 0.215-0.659 0.504-0.876 0.849l-0.006 0.011c-0.223 0.366-0.39 0.789-0.502 1.273-0.107 0.454-0.168 0.975-0.168 1.51 0 0.014 0 0.029 0 0.043v-0.002zM139.485 18.096v-0.257c0-0.87 0.127-1.678 0.379-2.422 0.25-0.753 0.623-1.403 1.101-1.961l-0.006 0.008c0.477-0.548 1.065-0.987 1.731-1.282l0.031-0.012c0.699-0.312 1.489-0.469 2.367-0.469 0.886 0 1.674 0.157 2.366 0.469 0.702 0.306 1.295 0.745 1.77 1.289l0.005 0.006c0.483 0.551 0.851 1.202 1.105 1.954 0.253 0.743 0.379 1.551 0.379 2.421v0.257c0 0.871-0.127 1.678-0.379 2.423-0.254 0.753-0.631 1.402-1.112 1.96l0.006-0.008c-0.483 0.551-1.072 0.983-1.763 1.295-0.693 0.305-1.477 0.457-2.355 0.457-0.885 0-1.678-0.152-2.377-0.457-0.695-0.313-1.283-0.751-1.759-1.289l-0.005-0.005c-0.474-0.55-0.851-1.2-1.093-1.912l-0.012-0.041c-0.241-0.703-0.38-1.512-0.38-2.354 0-0.024 0-0.047 0-0.071l-0 0.004zM142.175 17.839v0.257c0 0.543 0.056 1.057 0.167 1.541 0.112 0.483 0.287 0.907 0.525 1.272 0.239 0.365 0.544 0.651 0.915 0.859 0.373 0.208 0.815 0.312 1.328 0.312 0.499 0 0.93-0.103 1.295-0.312 0.373-0.208 0.678-0.495 0.915-0.859 0.236-0.365 0.417-0.79 0.52-1.246l0.005-0.026c0.113-0.452 0.178-0.971 0.178-1.505 0-0.013-0-0.025-0-0.038v0.002-0.257c0-0.535-0.059-1.041-0.178-1.518-0.109-0.486-0.294-0.916-0.545-1.298l0.009 0.015c-0.23-0.363-0.539-0.656-0.903-0.863l-0.013-0.007c-0.365-0.217-0.8-0.325-1.305-0.325-0.506 0-0.945 0.109-1.318 0.325-0.371 0.216-0.675 0.509-0.898 0.859l-0.006 0.011c-0.238 0.373-0.413 0.8-0.525 1.283-0.111 0.477-0.167 0.983-0.167 1.518z"></path>
</symbol>
</defs>
</svg>
