<svg aria-hidden="true" style="position: absolute; width: 0; height: 0; overflow: hidden;" version="1.1" xmlns="http://www.w3.org/2000/svg" xmlns:xlink="http://www.w3.org/1999/xlink">
<defs>
<symbol id="icon-eye-off" viewBox="0 0 32 32">
<path stroke-linejoin="round" stroke-linecap="round" stroke-miterlimit="4" stroke-width="3.2" d="M23.92 23.92c-2.279 1.737-5.055 2.7-7.92 2.747-9.333 0-14.667-10.667-14.667-10.667 1.659-3.091 3.959-5.791 6.747-7.92M13.2 5.653c0.918-0.215 1.857-0.322 2.8-0.32 9.333 0 14.667 10.667 14.667 10.667-0.809 1.514-1.775 2.94-2.88 4.253M18.827 18.827c-0.366 0.393-0.808 0.708-1.299 0.927s-1.020 0.336-1.557 0.346c-0.537 0.009-1.071-0.089-1.569-0.291s-0.95-0.5-1.33-0.88-0.679-0.832-0.88-1.33c-0.201-0.498-0.3-1.032-0.29-1.569s0.127-1.067 0.346-1.557 0.534-0.932 0.927-1.298"></path>
<path stroke-linejoin="round" stroke-linecap="round" stroke-miterlimit="4" stroke-width="3.2" d="M1.333 1.333l29.333 29.333"></path>
</symbol>
<symbol id="icon-Frame-11" viewBox="0 0 152 32">
<path fill="#ffda44" style="fill: var(--color1, #ffda44)" d="M16 32c8.837 0 16-7.163 16-16s-7.163-16-16-16c-8.837 0-16 7.163-16 16s7.163 16 16 16z"></path>
<path fill="#338af3" style="fill: var(--color2, #338af3)" d="M0 16c0-8.836 7.163-16 16-16s16 7.163 16 16z"></path>
<path fill="#121417" style="fill: var(--color3, #121417)" d="M52.973 21.779v2.221h-8.158v-2.221h8.159zM45.596 7.75v16.25h-2.801v-16.25h2.801zM59.737 24.223c-0.893 0-1.7-0.145-2.422-0.435-0.714-0.298-1.324-0.711-1.83-1.239-0.498-0.528-0.882-1.15-1.15-1.864s-0.402-1.484-0.402-2.31v-0.446c0-0.945 0.138-1.801 0.413-2.567s0.658-1.421 1.15-1.964c0.491-0.551 1.071-0.971 1.741-1.261s1.395-0.435 2.176-0.435c0.863 0 1.618 0.145 2.266 0.435s1.183 0.699 1.607 1.228c0.432 0.521 0.751 1.142 0.96 1.864 0.216 0.722 0.324 1.518 0.324 2.388v1.149h-9.33v-1.931h6.674v-0.212c-0.015-0.484-0.112-0.938-0.29-1.362-0.171-0.424-0.435-0.766-0.792-1.027s-0.833-0.391-1.429-0.391c-0.447 0-0.845 0.097-1.194 0.29-0.342 0.186-0.629 0.458-0.859 0.815s-0.409 0.789-0.536 1.295c-0.119 0.498-0.178 1.060-0.178 1.685v0.446c0 0.528 0.071 1.019 0.212 1.473 0.149 0.446 0.365 0.837 0.647 1.172s0.625 0.599 1.027 0.792c0.402 0.186 0.859 0.279 1.373 0.279 0.647 0 1.224-0.13 1.73-0.391s0.945-0.629 1.317-1.105l1.417 1.373c-0.26 0.379-0.599 0.744-1.016 1.094-0.417 0.342-0.926 0.621-1.529 0.837-0.595 0.216-1.287 0.324-2.076 0.324zM73.019 21.578v-5.759c0-0.432-0.078-0.804-0.234-1.116s-0.394-0.554-0.714-0.725c-0.312-0.171-0.707-0.257-1.183-0.257-0.439 0-0.819 0.074-1.138 0.223s-0.569 0.35-0.748 0.603c-0.179 0.253-0.268 0.539-0.268 0.859h-2.678c0-0.476 0.115-0.938 0.346-1.384s0.566-0.844 1.004-1.194 0.964-0.625 1.574-0.826c0.61-0.201 1.295-0.301 2.053-0.301 0.908 0 1.711 0.152 2.411 0.458 0.707 0.305 1.261 0.766 1.663 1.384 0.409 0.61 0.614 1.376 0.614 2.299v5.368c0 0.551 0.037 1.045 0.112 1.484 0.082 0.432 0.197 0.807 0.346 1.127v0.178h-2.757c-0.126-0.29-0.227-0.659-0.301-1.105-0.067-0.454-0.1-0.893-0.1-1.317zM73.409 16.656l0.022 1.663h-1.931c-0.499 0-0.938 0.048-1.317 0.145-0.379 0.089-0.696 0.223-0.949 0.402s-0.443 0.394-0.569 0.647c-0.126 0.253-0.19 0.539-0.19 0.859s0.074 0.614 0.223 0.882c0.149 0.26 0.365 0.465 0.647 0.614 0.29 0.149 0.64 0.223 1.049 0.223 0.551 0 1.031-0.112 1.44-0.335 0.417-0.231 0.744-0.51 0.982-0.837 0.238-0.335 0.365-0.651 0.38-0.949l0.871 1.194c-0.089 0.305-0.242 0.632-0.458 0.982s-0.499 0.685-0.848 1.004c-0.342 0.312-0.755 0.569-1.239 0.77-0.476 0.201-1.027 0.301-1.652 0.301-0.789 0-1.492-0.156-2.109-0.469-0.618-0.32-1.101-0.748-1.451-1.284-0.35-0.543-0.525-1.157-0.525-1.841 0-0.64 0.119-1.205 0.357-1.696 0.246-0.498 0.603-0.915 1.071-1.25 0.476-0.335 1.057-0.588 1.741-0.759 0.685-0.179 1.466-0.268 2.344-0.268h2.109zM80.776 14.223v9.777h-2.69v-12.076h2.567l0.123 2.299zM84.47 11.846l-0.022 2.5c-0.164-0.030-0.342-0.052-0.536-0.067-0.186-0.015-0.372-0.022-0.558-0.022-0.461 0-0.867 0.067-1.217 0.201-0.35 0.127-0.644 0.312-0.882 0.558-0.231 0.238-0.409 0.528-0.536 0.87s-0.201 0.726-0.223 1.149l-0.614 0.045c0-0.759 0.074-1.462 0.223-2.109s0.372-1.216 0.67-1.708c0.305-0.491 0.685-0.874 1.138-1.15 0.461-0.275 0.993-0.413 1.596-0.413 0.164 0 0.338 0.015 0.525 0.045 0.193 0.030 0.338 0.063 0.435 0.1zM88.366 14.502v9.498h-2.69v-12.076h2.534l0.156 2.578zM87.886 17.516l-0.871-0.011c0.007-0.856 0.126-1.641 0.357-2.355 0.238-0.714 0.566-1.328 0.982-1.842 0.424-0.513 0.93-0.908 1.518-1.183 0.588-0.283 1.243-0.424 1.964-0.424 0.58 0 1.105 0.082 1.574 0.245 0.476 0.156 0.882 0.413 1.216 0.77 0.342 0.357 0.603 0.822 0.781 1.395 0.179 0.565 0.268 1.261 0.268 2.087v7.801h-2.701v-7.812c0-0.58-0.085-1.038-0.257-1.373-0.164-0.342-0.406-0.584-0.725-0.726-0.313-0.149-0.703-0.223-1.172-0.223-0.461 0-0.874 0.097-1.239 0.29s-0.673 0.458-0.926 0.792c-0.246 0.335-0.435 0.722-0.569 1.161s-0.201 0.908-0.201 1.406zM108.411 21.779v2.221h-8.159v-2.221h8.159zM101.034 7.75v16.25h-2.801v-16.25h2.801zM112.73 11.924v12.076h-2.701v-12.076h2.701zM109.851 8.754c0-0.409 0.134-0.748 0.402-1.016 0.275-0.275 0.655-0.413 1.138-0.413 0.476 0 0.852 0.138 1.127 0.413 0.275 0.268 0.413 0.606 0.413 1.016 0 0.402-0.138 0.737-0.413 1.004s-0.651 0.402-1.127 0.402c-0.484 0-0.863-0.134-1.138-0.402-0.268-0.268-0.402-0.603-0.402-1.004zM117.887 14.502v9.498h-2.689v-12.076h2.533l0.157 2.578zM117.407 17.516l-0.87-0.011c0.007-0.856 0.126-1.641 0.357-2.355 0.238-0.714 0.566-1.328 0.982-1.842 0.425-0.513 0.93-0.908 1.519-1.183 0.587-0.283 1.242-0.424 1.963-0.424 0.581 0 1.105 0.082 1.574 0.245 0.477 0.156 0.882 0.413 1.217 0.77 0.342 0.357 0.602 0.822 0.781 1.395 0.179 0.565 0.269 1.261 0.269 2.087v7.801h-2.702v-7.812c0-0.58-0.085-1.038-0.256-1.373-0.163-0.342-0.406-0.584-0.726-0.726-0.312-0.149-0.703-0.223-1.171-0.223-0.462 0-0.874 0.097-1.239 0.29s-0.674 0.458-0.927 0.792c-0.246 0.335-0.435 0.722-0.569 1.161s-0.201 0.908-0.201 1.406zM135.221 11.924h2.443v11.741c0 1.086-0.231 2.009-0.691 2.768-0.462 0.759-1.105 1.336-1.931 1.73-0.825 0.402-1.782 0.603-2.867 0.603-0.462 0-0.975-0.067-1.541-0.201-0.558-0.134-1.102-0.35-1.63-0.647-0.521-0.29-0.955-0.673-1.305-1.149l1.261-1.585c0.432 0.513 0.907 0.889 1.429 1.127s1.067 0.357 1.641 0.357c0.617 0 1.142-0.115 1.574-0.346 0.439-0.223 0.777-0.554 1.015-0.993 0.239-0.439 0.358-0.975 0.358-1.607v-9.063l0.246-2.734zM127.017 18.096v-0.234c0-0.915 0.112-1.748 0.335-2.5 0.223-0.759 0.543-1.41 0.96-1.953 0.416-0.55 0.922-0.971 1.518-1.261 0.595-0.298 1.269-0.446 2.019-0.446 0.782 0 1.448 0.141 1.998 0.424 0.559 0.283 1.024 0.688 1.395 1.216 0.373 0.521 0.663 1.146 0.871 1.875 0.216 0.722 0.376 1.525 0.48 2.411v0.748c-0.097 0.863-0.261 1.652-0.491 2.366s-0.536 1.332-0.915 1.853c-0.379 0.521-0.848 0.923-1.406 1.205-0.551 0.283-1.202 0.424-1.953 0.424-0.737 0-1.402-0.153-1.998-0.458-0.589-0.305-1.094-0.733-1.518-1.283-0.417-0.551-0.737-1.198-0.96-1.942-0.223-0.752-0.335-1.566-0.335-2.444zM129.706 17.862v0.234c0 0.551 0.053 1.064 0.157 1.54 0.112 0.476 0.279 0.897 0.503 1.261 0.23 0.357 0.52 0.64 0.87 0.848 0.358 0.201 0.778 0.301 1.262 0.301 0.632 0 1.15-0.134 1.551-0.402 0.409-0.268 0.722-0.629 0.938-1.083 0.223-0.461 0.379-0.975 0.469-1.54v-2.020c-0.045-0.439-0.138-0.848-0.279-1.228-0.135-0.379-0.317-0.71-0.547-0.993-0.231-0.29-0.521-0.513-0.871-0.67-0.35-0.164-0.762-0.246-1.239-0.246-0.483 0-0.904 0.104-1.261 0.312-0.358 0.208-0.651 0.495-0.882 0.859-0.223 0.365-0.39 0.789-0.502 1.272s-0.168 1.001-0.168 1.551zM139.483 18.096v-0.257c0-0.87 0.127-1.678 0.379-2.422 0.254-0.751 0.618-1.402 1.095-1.953 0.483-0.558 1.071-0.989 1.762-1.295 0.699-0.312 1.489-0.469 2.367-0.469 0.886 0 1.674 0.156 2.366 0.469 0.699 0.305 1.291 0.737 1.775 1.295 0.483 0.551 0.851 1.202 1.105 1.953 0.253 0.744 0.379 1.551 0.379 2.422v0.257c0 0.87-0.127 1.678-0.379 2.422-0.254 0.744-0.622 1.395-1.105 1.953-0.483 0.551-1.072 0.982-1.763 1.295-0.693 0.305-1.477 0.458-2.355 0.458-0.885 0-1.678-0.153-2.377-0.458-0.691-0.312-1.28-0.744-1.763-1.295-0.483-0.558-0.851-1.209-1.105-1.953-0.253-0.744-0.379-1.551-0.379-2.422zM142.174 17.839v0.257c0 0.543 0.056 1.057 0.167 1.54 0.112 0.484 0.287 0.908 0.525 1.272 0.239 0.365 0.544 0.651 0.915 0.859 0.373 0.208 0.815 0.312 1.328 0.312 0.499 0 0.93-0.104 1.295-0.312 0.373-0.208 0.678-0.495 0.915-0.859s0.413-0.789 0.525-1.272c0.119-0.484 0.178-0.997 0.178-1.54v-0.257c0-0.536-0.059-1.042-0.178-1.518-0.112-0.484-0.29-0.911-0.536-1.283-0.238-0.372-0.543-0.662-0.915-0.87-0.365-0.216-0.8-0.324-1.305-0.324-0.506 0-0.945 0.108-1.318 0.324-0.365 0.208-0.665 0.498-0.904 0.87-0.238 0.372-0.413 0.8-0.525 1.283-0.111 0.476-0.167 0.982-0.167 1.518z"></path>
</symbol>
<symbol id="icon-Group-82" viewBox="0 0 32 32">
<path fill="#fff" style="fill: var(--color4, #fff)" d="M32 16c0 8.837-7.163 16-16 16s-16-7.163-16-16c0-8.837 7.163-16 16-16s16 7.163 16 16z"></path>
<path fill="#38cd3e" style="fill: var(--color5, #38cd3e)" d="M26.667 16c0 5.891-4.776 10.667-10.667 10.667s-10.667-4.776-10.667-10.667c0-5.891 4.776-10.667 10.667-10.667s10.667 4.776 10.667 10.667z"></path>
</symbol>
<symbol id="icon-login" viewBox="0 0 117 32">
<path fill="none" stroke="#f4c550" style="stroke: var(--color6, #f4c550)" stroke-linejoin="round" stroke-linecap="round" stroke-miterlimit="4" stroke-width="3.2" d="M20 4h1.6c2.24 0 3.36 0 4.216 0.436 0.753 0.383 1.364 0.995 1.748 1.748 0.436 0.856 0.436 1.976 0.436 4.216v11.2c0 2.24 0 3.36-0.436 4.216-0.384 0.753-0.995 1.364-1.748 1.748-0.856 0.436-1.976 0.436-4.216 0.436h-1.6"></path>
<path fill="none" stroke="#f4c550" style="stroke: var(--color6, #f4c550)" stroke-linejoin="round" stroke-linecap="round" stroke-miterlimit="4" stroke-width="3.2" d="M13.333 9.333l6.667 6.667M20 16l-6.667 6.667M20 16h-16"></path>
<path d="M58.125 21.075v2.925h-9.162v-2.925h9.162zM50.175 5.8v18.2h-3.75v-18.2h3.75zM59.475 17.375v-0.263c0-0.992 0.142-1.904 0.425-2.737 0.283-0.842 0.696-1.571 1.237-2.188s1.208-1.096 2-1.438c0.792-0.35 1.7-0.525 2.725-0.525s1.937 0.175 2.737 0.525c0.8 0.342 1.471 0.821 2.012 1.438 0.55 0.617 0.967 1.346 1.25 2.188 0.283 0.833 0.425 1.746 0.425 2.737v0.263c0 0.983-0.142 1.896-0.425 2.737-0.283 0.833-0.7 1.563-1.25 2.188-0.542 0.617-1.208 1.096-2 1.437s-1.7 0.512-2.725 0.512-1.937-0.171-2.737-0.512c-0.792-0.342-1.463-0.821-2.013-1.437-0.542-0.625-0.954-1.354-1.237-2.188-0.283-0.842-0.425-1.754-0.425-2.737zM63.075 17.112v0.263c0 0.567 0.050 1.096 0.15 1.588s0.258 0.925 0.475 1.3c0.225 0.367 0.517 0.654 0.875 0.862s0.796 0.312 1.312 0.312c0.5 0 0.929-0.104 1.288-0.312s0.646-0.496 0.862-0.862c0.217-0.375 0.375-0.808 0.475-1.3 0.108-0.492 0.163-1.021 0.163-1.588v-0.263c0-0.55-0.054-1.067-0.163-1.55-0.1-0.492-0.263-0.925-0.488-1.3-0.217-0.383-0.504-0.683-0.862-0.9s-0.792-0.325-1.3-0.325-0.942 0.108-1.3 0.325c-0.35 0.217-0.638 0.517-0.863 0.9-0.217 0.375-0.375 0.808-0.475 1.3-0.1 0.483-0.15 1-0.15 1.55zM83.063 10.475h3.262v13.075c0 1.233-0.275 2.279-0.825 3.137-0.542 0.867-1.3 1.521-2.275 1.962-0.975 0.45-2.108 0.675-3.4 0.675-0.567 0-1.167-0.075-1.8-0.225-0.625-0.15-1.225-0.383-1.8-0.7-0.567-0.317-1.042-0.717-1.425-1.2l1.588-2.125c0.417 0.483 0.9 0.858 1.45 1.125 0.55 0.275 1.158 0.412 1.825 0.412 0.65 0 1.2-0.121 1.65-0.363 0.45-0.233 0.796-0.579 1.038-1.037 0.242-0.45 0.362-0.996 0.362-1.637v-9.975l0.35-3.125zM73.963 17.4v-0.263c0-1.033 0.125-1.971 0.375-2.812 0.258-0.85 0.621-1.579 1.088-2.188 0.475-0.608 1.050-1.079 1.725-1.412s1.437-0.5 2.287-0.5c0.9 0 1.654 0.167 2.263 0.5s1.108 0.808 1.5 1.425c0.392 0.608 0.696 1.329 0.912 2.162 0.225 0.825 0.4 1.729 0.525 2.712v0.575c-0.125 0.942-0.312 1.817-0.562 2.625s-0.579 1.517-0.988 2.125c-0.408 0.6-0.917 1.067-1.525 1.4-0.6 0.333-1.317 0.5-2.15 0.5s-1.588-0.171-2.262-0.512c-0.667-0.342-1.238-0.821-1.713-1.437s-0.842-1.342-1.1-2.175c-0.25-0.833-0.375-1.742-0.375-2.725zM77.563 17.137v0.263c0 0.558 0.054 1.079 0.162 1.563s0.275 0.912 0.5 1.287c0.233 0.367 0.521 0.654 0.863 0.863 0.35 0.2 0.762 0.3 1.237 0.3 0.658 0 1.196-0.137 1.612-0.412 0.417-0.283 0.729-0.671 0.938-1.163s0.329-1.058 0.362-1.7v-1.637c-0.017-0.525-0.087-0.996-0.212-1.412-0.125-0.425-0.3-0.787-0.525-1.088s-0.517-0.533-0.875-0.7c-0.358-0.167-0.783-0.25-1.275-0.25-0.475 0-0.888 0.108-1.238 0.325-0.342 0.208-0.629 0.496-0.863 0.863-0.225 0.367-0.396 0.8-0.512 1.3-0.117 0.492-0.175 1.025-0.175 1.6zM99.3 10.475v13.525h-3.612v-13.525h3.612zM95.463 6.95c0-0.525 0.183-0.958 0.55-1.3s0.858-0.513 1.475-0.513c0.608 0 1.096 0.171 1.463 0.513 0.375 0.342 0.562 0.775 0.562 1.3s-0.188 0.958-0.562 1.3c-0.367 0.342-0.854 0.512-1.463 0.512-0.617 0-1.108-0.171-1.475-0.512s-0.55-0.775-0.55-1.3zM105.8 13.363v10.637h-3.6v-13.525h3.375l0.225 2.888zM105.275 16.763h-0.975c0-1 0.129-1.9 0.388-2.7 0.258-0.808 0.621-1.496 1.088-2.063 0.467-0.575 1.021-1.012 1.662-1.313 0.65-0.308 1.375-0.463 2.175-0.463 0.633 0 1.212 0.092 1.738 0.275s0.975 0.475 1.35 0.875c0.383 0.4 0.675 0.929 0.875 1.588 0.208 0.658 0.312 1.463 0.312 2.412v8.625h-3.625v-8.637c0-0.6-0.083-1.067-0.25-1.4s-0.412-0.567-0.737-0.7c-0.317-0.142-0.708-0.213-1.175-0.213-0.483 0-0.904 0.096-1.263 0.287-0.35 0.192-0.642 0.458-0.875 0.8-0.225 0.333-0.396 0.725-0.513 1.175s-0.175 0.933-0.175 1.45z"></path>
</symbol>
<symbol id="icon-normal" viewBox="0 0 32 32">
<path stroke-linejoin="round" stroke-linecap="round" stroke-miterlimit="4" stroke-width="2.4615" d="M27.787 6.147c-0.681-0.681-1.49-1.222-2.379-1.591s-1.844-0.559-2.807-0.559-1.917 0.19-2.807 0.559c-0.89 0.369-1.699 0.909-2.38 1.591l-1.413 1.413-1.413-1.413c-1.376-1.376-3.241-2.148-5.187-2.148s-3.811 0.773-5.187 2.148c-1.376 1.376-2.148 3.241-2.148 5.187s0.773 3.811 2.148 5.187l11.787 11.787 11.787-11.787c0.681-0.681 1.222-1.49 1.591-2.379s0.559-1.844 0.559-2.807-0.19-1.917-0.559-2.807c-0.369-0.89-0.909-1.699-1.591-2.38z"></path>
</symbol>
<symbol id="icon-Vector" viewBox="0 0 40 32">
<path stroke-linejoin="round" stroke-linecap="round" stroke-miterlimit="4" stroke-width="4" d="M29.9 25.9c-2.849 2.172-6.318 3.375-9.9 3.433-11.667 0-18.333-13.333-18.333-13.333 2.073-3.864 4.949-7.239 8.433-9.9M16.5 3.067c1.147-0.269 2.322-0.403 3.5-0.4 11.667 0 18.333 13.333 18.333 13.333-1.012 1.893-2.218 3.675-3.6 5.317M23.533 19.533c-0.458 0.491-1.010 0.885-1.623 1.159s-1.275 0.42-1.947 0.432c-0.671 0.012-1.338-0.112-1.961-0.363s-1.188-0.626-1.663-1.1c-0.475-0.475-0.849-1.040-1.101-1.663s-0.375-1.289-0.363-1.961c0.012-0.671 0.159-1.333 0.432-1.947s0.667-1.165 1.159-1.623"></path>
</symbol>
<symbol id="icon-Vector-1" viewBox="0 0 35 32">
<path fill="#f4c550" style="fill: var(--color6, #f4c550); stroke: var(--color6, #f4c550)" stroke="#f4c550" stroke-linejoin="round" stroke-linecap="round" stroke-miterlimit="4" stroke-width="1.4545" d="M31.384 4.355c-0.805-0.805-1.76-1.444-2.812-1.88s-2.179-0.66-3.318-0.66-2.266 0.224-3.318 0.66c-1.052 0.436-2.007 1.075-2.812 1.88l-1.67 1.67-1.67-1.67c-1.626-1.626-3.831-2.539-6.13-2.539s-4.504 0.913-6.13 2.539c-1.626 1.626-2.539 3.831-2.539 6.13s0.913 4.504 2.539 6.13l13.93 13.93 13.93-13.93c0.805-0.805 1.444-1.76 1.88-2.812s0.66-2.179 0.66-3.318-0.224-2.266-0.66-3.318c-0.436-1.052-1.075-2.007-1.88-2.812z"></path>
</symbol>
<symbol id="icon-x" viewBox="0 0 32 32">
<path stroke-linejoin="round" stroke-linecap="round" stroke-miterlimit="4" stroke-width="2.5" d="M24 8l-16 16"></path>
<path stroke-linejoin="round" stroke-linecap="round" stroke-miterlimit="4" stroke-width="2.5" d="M8 8l16 16"></path>
</symbol>
</defs>
</svg>
