<svg width="20" height="16" viewBox="0 0 20 16" fill="none" xmlns="http://www.w3.org/2000/svg">
<path d="M14.9499 12.9499C13.5254 14.0358 11.7908 14.6373 9.99992 14.6666C4.16659 14.6666 0.833252 7.99994 0.833252 7.99994C1.86983 6.06819 3.30753 4.38045 5.04992 3.04994M8.24992 1.53327C8.82353 1.39901 9.41081 1.33189 9.99992 1.33327C15.8333 1.33327 19.1666 7.99994 19.1666 7.99994C18.6607 8.94628 18.0575 9.83722 17.3666 10.6583M11.7666 9.76661C11.5377 10.0122 11.2617 10.2092 10.955 10.3459C10.6484 10.4825 10.3173 10.556 9.98166 10.5619C9.64599 10.5678 9.31256 10.5061 9.00126 10.3803C8.68997 10.2546 8.40719 10.0675 8.16979 9.83007C7.9324 9.59267 7.74525 9.30989 7.61951 8.9986C7.49377 8.6873 7.43202 8.35387 7.43795 8.0182C7.44387 7.68252 7.51734 7.35148 7.65398 7.04481C7.79062 6.73815 7.98763 6.46215 8.23325 6.23327" stroke="#121417" stroke-width="2" stroke-linecap="round" stroke-linejoin="round"/>
</svg>
